# xmcd CD database file
#
# Track frame offsets:
#	150
#	16783
#	34637
#	51532
#	67036
#
# Disc length: 1140 seconds
#
# Revision: 0
# Processed by: cddbd v1.5.2PL0 Copyright (c) Steve Scherf et al.
# Submitted via: jetAudio 7
#
DISCID=3d047205
DTITLE=李幸倪 - Here I come
DYEAR=1900
DGENRE=R&B
TTITLE0=潛水
TTITLE1=廢話少說
TTITLE2=陪襯
TTITLE3=Tequila Sunrise
TTITLE4=十年如當日
EXTD=
EXTT0=
EXTT1=
EXTT2=
EXTT3=
EXTT4=
PLAYORDER=
